<svg xmlns="http://www.w3.org/2000/svg" width="27.262" height="27.262" viewBox="0 0 27.262 27.262">
  <path fill="rgb(6,31,53)" fill-rule="evenodd" d="M.73168945.73175049c.97570801-.97566223 2.55993653-.97566223 3.53564453 0l9.3638916 9.36392975 9.3638916-9.36392975c.97570802-.9756546 2.55993653-.9756546 3.53552247 0 .975708.97566223.975708 2.55987549 0 3.53553772l-9.3638916 9.36392975 9.3638916 9.36392975c.975708.97566223.975708 2.55988311 0 3.53553771-.97558594.9756546-2.55981445.97566224-3.53552246 0l-9.3638916-9.36390686-9.3638916 9.3639145c-.97570801.9756546-2.55993653.9756546-3.53552247 0-.975708-.97566224-.975708-2.5598755 0-3.53553773l9.3638916-9.36389923L.73168945 4.26728058c-.97558593-.9756546-.97558593-2.55987549 0-3.5355301z"/>
</svg>
