<svg xmlns="http://www.w3.org/2000/svg" width="31" height="31" viewBox="0 0 31 31">
  <g>
    <path fill="rgb(255,255,255)" fill-rule="evenodd" d="M8 16c0-4.41699219 3.57910156-8 8-8 4.41699219 0 8 3.57910156 8 8 0 4.41699219-3.57910156 8-8 8-4.41699219 0-8-3.57910156-8-8zm2.80737305 0c0 2.86865234 2.32287597 5.1928711 5.19262695 5.1928711S21.19384766 18.86865233 21.19250488 16c0-2.86816406-2.32409668-5.19238281-5.19250488-5.19238281-2.86853027 0-5.19262695 2.32421875-5.19262695 5.19238281z"/>
    <path fill="rgb(255,255,255)" fill-rule="evenodd" d="M9.12072754.09716797c2.85461426-.12646484 9.91870117-.1328125 12.77075195 0 5.83447266.26904297 8.75488281 3.56884765 9.01062012 9.01074219.12658691 2.85449218.13439941 9.91699218 0 12.7705078-.211792 4.60986329-2.37927246 7.17626954-5.25061035 8.29101563-2.10302735.81396485-4.15625.81396485-10.07165528.81396485h-.07434082c-.62255859 0-1.22521972.00439453-1.80859375.00878906-4.87219238.03613281-8.40820312.0625-11.08093261-2.60888672-2.65368653-2.6538086-2.63452149-6.1147461-2.60632325-11.20800781.00305176-.5415039.00610352-1.10205078.00610352-1.68164063 0-.61914062-.00415039-1.21826172-.00830078-1.796875-.03466797-4.92724609-.0592041-8.42480468 2.6085205-11.09228515C4.3996582.82080079 6.6123047.21484375 9.12072755.09716797zm7.76916504 28.09521484c5.27429199.01220703 7.71606445.0180664 9.5159912-1.78173828 1.8088379-1.81738281 1.80651856-4.23388672 1.80114747-9.8413086l-.00061035-1.07714843c0-4.13574219-.01672363-4.62646484-.0904541-6.2602539-.29638672-6.54736329-4.83642578-6.50585938-10.87353516-6.4506836-.56567383.00488281-1.14465332.0102539-1.734375.0102539l-.05810547-.03857421c-4.14233398 0-4.62670898.01953125-6.27233887.07763672-6.53723144.33447265-6.49768066 4.6455078-6.44091796 10.82128906.00537109.59082031.01098632 1.19824219.01098632 1.82128906 0 .734375-.00769043 1.43408203-.01489257 2.10009766-.04492188 4.11669922-.07592774 6.95361328 1.79736328 8.8178711 1.80065918 1.80566405 4.2368164 1.80371093 10.04980468 1.79980468l.88806153-.00048828 1.421875.00195312z"/>
    <ellipse cx="24" cy="7" fill="rgb(255,255,255)" rx="2" ry="2"/>
  </g>
</svg>
