<svg xmlns="http://www.w3.org/2000/svg" width="19.5" height="23.5" viewBox="0 0 19.5 23.5">
  <g transform="translate(.75 .75)">
    <path fill="none" stroke="rgb(6,31,53)" stroke-linecap="round" stroke-linejoin="round" stroke-width="1.5" d="M0 9.21413923C.01641047 4.10858513 4.06041943-.01800303 9.03044784.00005907c4.9700284.01685796 8.9870773 4.17114136 8.96949466 9.27669544v.1047602c-.059781 3.31981429-1.86493283 6.3879633-4.0768299 8.78540627-1.26477846 1.34863693-2.67725116 2.54314392-4.20928585 3.55943818-.41026178.36485445-1.01744922.36485445-1.427711 0-2.28339984-1.52564553-4.28782167-3.45467799-5.92183573-5.69558274C.9084368 14.07766115.08205236 11.70550512 0 9.24544687v-.03130764z"/>
    <path fill="none" stroke="rgb(6,31,53)" stroke-linecap="round" stroke-linejoin="round" stroke-width="1.5" d="M9.00060963 6C10.65758993 6 12 7.34335636 12 9s-1.34241008 3-2.99939037 3S6 10.65664364 6 9s1.34362934-3 3.00060963-3z"/>
  </g>
</svg>
