<svg xmlns="http://www.w3.org/2000/svg" width="19.5" height="23.5" viewBox="0 0 19.5 23.5">
  <g>
    <path fill="none" stroke="rgb(255,255,255)" stroke-linecap="round" stroke-linejoin="round" stroke-width="1.5" d="M.75 9.96413923C.76641047 4.85858513 4.81041943.73199697 9.78044784.75005907c4.9700284.01685796 8.9870773 4.17114136 8.96949466 9.27669544v.1047602c-.059781 3.31981429-1.86493283 6.3879633-4.0768299 8.78540627-1.26477846 1.34863693-2.67725116 2.54314392-4.20928585 3.55943818-.41026178.36485445-1.01744922.36485445-1.427711 0-2.28339984-1.52564553-4.28782167-3.45467799-5.92183573-5.69558274C1.6584368 14.82766115.83205236 12.45550512.75 9.99544687v-.03130764z"/>
    <path fill="none" stroke="rgb(255,255,255)" stroke-linecap="round" stroke-linejoin="round" stroke-width="1.5" d="M9.75060963 6.75C11.40758993 6.75 12.75 8.09335636 12.75 9.75s-1.34241008 3-2.99939037 3S6.75 11.40664364 6.75 9.75s1.34362934-3 3.00060963-3z"/>
  </g>
</svg>
