<svg xmlns="http://www.w3.org/2000/svg" width="18" height="15" viewBox="0 0 18 15">
  <path fill="rgb(255,255,255)" fill-rule="evenodd" d="M1.56518555 0h14.8696289C17.29919434 0 18 .73388672 18 1.63916016v11.72167968C18 14.26611328 17.29919434 15 16.43481445 15H1.56518555C.70080566 15 0 14.26611328 0 13.36083984V1.63916016C0 .73388672.70080566 0 1.56518555 0zm8.58776855 7.68701172l5.4194336-3.11083985c.40380859-.2290039.54675292-.74316406.31982421-1.14941406-.11108398-.19580078-.29528808-.33886718-.51171875-.39746093-.21643066-.05859375-.44726562-.02832032-.64123535.08447265l-5.4194336 3.11083985c-.19921874.10986328-.44042968.10986328-.63964843 0l-5.4194336-3.11083985c-.19396972-.11279297-.42480468-.1430664-.64123534-.08447265-.21643067.05859375-.40063477.20166015-.51171875.39746093-.22692872.40625-.08398438.92041016.31982421 1.14941407l5.4194336 3.11083984c.71252441.41748047 1.59338379.41748047 2.3059082 0z"/>
</svg>
