<svg width="28" height="25" viewBox="0 0 28 25" fill="none" xmlns="http://www.w3.org/2000/svg">
<path d="M28 12.5C28 19.4036 21.732 25 14 25C6.86629 25 0.978852 20.2362 0.110852 14.0771C0.0377344 13.5607 0 13.0342 0 12.5C0 11.5214 0.125727 10.5689 0.364 9.65508C1.80627 4.12246 7.364 0 14 0C20.6194 0 26.1663 4.10205 27.6246 9.61431C27.816 10.3352 27.9366 11.0801 27.9806 11.8429C27.9937 12.0607 28 12.2796 28 12.5Z" fill="#F2F2F2"/>
<path d="M13.3074 13.5008V10.264L10.159 8.64563L7.01074 10.264V13.5008L10.159 15.1192L13.3074 13.5008Z" fill="#3B8739"/>
<path d="M25.7211 13.0095L27.7867 14.0643L25.7211 15.1192L22.5518 13.5008V10.264L25.7211 8.64563L27.6419 9.62683C27.8344 10.3448 27.9557 11.0867 27.9999 11.8463L26.8255 12.4459V11.3184L25.7211 10.7549L24.6168 11.3184V12.4459L25.7211 13.0095Z" fill="#333333"/>
<path d="M26.3481 12.2016V11.5628L25.7229 11.2434L25.0977 11.5628V12.2016L25.7229 12.5211L26.3481 12.2016Z" fill="#66A060"/>
<path d="M5.49282 10.2615V14.523L3.39566 13.4581V11.2736L2.34855 10.7353L1.30139 11.2736V13.4581L0.110581 14.0628C0.0376423 13.5494 0 13.0259 0 12.4947C0 11.5217 0.12542 10.5745 0.363111 9.66586L2.34855 8.64563L5.49282 10.2615Z" fill="#333333"/>
<path d="M13.2987 13.5033L10.1465 8.62866L6.99439 10.2536L10.1466 15.1283L13.2987 13.5033Z" fill="#6DA75D"/>
<path d="M7.01074 13.5006L8.08251 11.931L7.01074 10.2638V13.5006Z" fill="#55A344"/>
<path d="M12.2514 11.8824L13.3083 10.2641L10.1377 8.64563L12.2514 11.8824Z" fill="#639D57"/>
<path d="M18.9411 4.85535V9.16591L17.8859 8.62114L14.7373 10.2457V13.4948L17.8859 15.1194L21.034 13.4948V5.85659L18.9411 4.85535ZM18.9354 12.4115L17.8858 12.9532L16.8363 12.4115V11.3286L17.8858 10.7869L18.9354 11.3286V12.4115Z" fill="#333333"/>
<path d="M15.429 17.5155C15.429 17.5155 15.3671 17.0405 14.798 17.0405C14.2288 17.0405 13.8391 17.1067 13.8391 17.3885C13.8391 17.6702 14.9465 17.6702 15.3672 17.7807C15.7879 17.8911 16.1591 18.1784 15.9735 18.6866C15.7879 19.1948 15.2187 19.25 14.3402 19.25C13.4617 19.25 13.2637 18.5981 13.2637 18.3441H13.7586C13.7586 18.3441 13.6967 18.7418 14.2782 18.808C14.8598 18.8743 15.4158 18.9116 15.4908 18.5098C15.5898 17.9795 13.6101 18.2447 13.4368 17.7254C13.2905 17.2867 13.3749 16.7091 14.3648 16.6206C15.3547 16.5322 15.8991 16.9224 15.8991 17.5045L15.429 17.5155Z" fill="#66A060"/>
<path d="M10.6485 19.5866L11.7427 20.1506C12.2925 20.434 12.9797 20.0798 12.9797 19.513V18.5246V16.7056H12.5337V19.4022C12.5337 19.7117 12.1584 19.9052 11.8581 19.7504L11.0944 19.3568V16.4788L13.8858 15.04L16.6772 16.4788V19.3568L13.8858 20.7956L13.0817 20.3811L12.5566 20.5701L13.8858 21.2553L17.1232 19.5864V16.249L13.8858 14.5802L10.6484 16.2491V19.5866H10.6485Z" fill="#66A060"/>
</svg>
