<svg xmlns="http://www.w3.org/2000/svg" width="52" height="52" viewBox="0 0 52 52">
  <g>
    <g opacity=".542">
      <ellipse cx="26" cy="26" fill="rgb(255,255,255)" rx="26" ry="26"/>
    </g>
    <path fill="rgb(6,31,53)" fill-rule="evenodd" d="M18.40755812 16.28246558l7.3306126 7.33049083 7.33093056-7.33049083c.37662078-.37662077.9872437-.37662077 1.36386448 0l1.02289836 1.02289836c.37662078.37662078.37662078.9872437 0 1.36386448l-7.33129099 7.3306126 7.33129099 7.33093056c.37662078.37662077.37662078.9872437 0 1.36386448l-1.02289836 1.02289836c-.37662078.37662077-.9872437.37662077-1.36386448 0l-7.33093056-7.331291-7.3306126 7.331291c-.37662077.37662077-.9872437.37662077-1.36386448 0l-1.02289836-1.02289836c-.37662077-.37662078-.37662077-.9872437 0-1.36386448l7.33049083-7.33093056-7.33049083-7.3306126c-.37662077-.37662077-.37662077-.9872437 0-1.36386448l1.02289836-1.02289836c.37662078-.37662077.9872437-.37662077 1.36386448 0z"/>
  </g>
</svg>
