<svg xmlns="http://www.w3.org/2000/svg" width="18" height="18" viewBox="0 0 18 18">
  <path fill="rgb(255,255,255)" fill-rule="evenodd" d="M17.2845459 9c-.3947754 0-.7154541-.32128906-.7154541-.71533203 0-1.89208984-.76745606-3.60644531-2.00720215-4.84667969-1.23986817-1.2397461-2.95471192-2.00683594-4.84643555-2.00683594C9.321167 1.43115234 9 1.11035156 9 .71533204 9 .32128905 9.321167 0 9.7154541 0c2.28710938 0 4.35888672.9272461 5.85827637 2.42626953C17.0727539 3.92578125 18 5.9975586 18 8.28466797 18 8.67871094 17.678833 9 17.2845459 9zM5.524292 5.96728516L4.07458495 7.64111328c.98937988 2.4086914 3.87634277 5.29541016 6.2845459 6.28466797l1.67382812-1.44970703c.24841309-.21582031.60217286-.22949219.86755372-.03515625l2.81335449 2.06396484c.24121093.17675782.34094238.47070313.2565918.7578125-.60314942 2.05761719-2.40148926 3.36376953-4.9572754 2.43066407C6.34082031 15.98730468 2.01245117 11.65820311.3067627 6.9868164-.6265869 4.43164062.68005372 2.6328125 2.73754884 2.02929687c.2869873-.08398437.58117676.015625.75744629.25683594L5.5592041 5.09960938c.19433594.26513671.180542.61914062-.0349121.86767578zm8.8642578 2.22705078c0 .44384765.36108399.80566406.80566407.80566406C15.63830567 9 16 8.6381836 16 8.19433594c0-1.70898438-.69335938-3.25878907-1.81469727-4.37939453C13.06445313 2.69335938 11.51489258 2 9.80578613 2 9.36169433 2 9 2.3618164 9 2.80566406c0 .44482422.36169434.80566407.80578613.80566407 1.2644043 0 2.41088867.51367187 3.23986817 1.34277343.82958984.82910157 1.3428955 1.97558594 1.3428955 3.24023438zM11.37402344 9c-.3446045-.00048828-.62341309-.28125-.62304688-.62597656.00048828-.30810547-.12695312-.58935547-.33129883-.79394532-.20422363-.20410156-.48571777-.33154296-.79370117-.33105468C9.28149414 7.24951172 9.00048828 6.97070312 9 6.62597656c-.0008545-.34423828.2779541-.625.6225586-.62597656.65771484-.00048828 1.2532959.265625 1.68261718.69482422.42919922.42919922.6953125 1.02490234.69482422 1.68261719-.0008545.34472656-.28186035.62353515-.62597656.62255859z"/>
</svg>
