<svg xmlns="http://www.w3.org/2000/svg" width="345" height="49" viewBox="0 0 345 49">
  <g>
    <g>
      <path fill="rgb(6,31,53)" fill-rule="evenodd" d="M51 26c-3.44787837 12.17179903-13.56271419 18-25.49841112 18C13.55953642 44 3.44787838 38.17179903 0 26h6.48900243c3.0665462 8.82982172 10.42307932 12.06482982 19.01258645 12.06482982 8.58632937 0 15.93968472-3.2350081 19.00940869-12.06482982H51z"/>
      <path fill="rgb(0,177,166)" fill-rule="evenodd" d="M51 18H0V6h6.60022431l-.00025901 7.33896885h37.7964026l.00023002-3.7539607H51V18z"/>
      <path fill="rgb(6,31,53)" fill-rule="evenodd" d="M153.57641602 31c1.91748046 0 3.83483886-.54418945 5.36889648-1.43798828l-1.22717285-4.39160156c-1.07385254.50512695-1.99414063.77734375-2.76123047.77734375-1.26550293.03881836-1.99414063-.66064453-1.99414063-2.40966797v-8.62768555h5.59899903v-4.15844726h-5.59899903V5h-5.86730957v5.75195313h-2.8762207v4.11938476h2.8762207v9.6772461c0 4.31396484 2.79943848 6.45141601 6.48095704 6.45141601zm-74.46716309 0c4.76959228 0 8.56188965-2.30126953 8.56188965-6.66601563.0236206-4.5625-4.03326416-5.7680664-7.24066162-6.7211914-2.0925293-.62182617-3.82336426-1.13623047-3.82336426-2.40527344 0-1.11108398 1.0164795-1.5871582 2.4239502-1.5871582 1.75927734 0 4.10498046.75390625 6.41162109 2.06323242l2.07208252-4.16625977c-2.34576416-1.5078125-5.3170166-2.38085937-8.21008301-2.38085937-4.57415771 0-8.288208 2.26171875-8.288208 6.66625976 0 7.49951172 10.90759277 5.67431641 10.90759277 9.08666993 0 1.15063476-1.13372803 1.6665039-2.65844727 1.6665039-2.30664063 0-5.121521-.95214843-7.31085205-2.65844726L70 28.02416992C72.38482666 29.96850586 75.70794678 31 79.10925293 31zm63.34265137-6.66601563c0 4.3647461-3.79223633 6.66601563-8.56188965 6.66601563-3.40136719 0-6.7244873-1.03149414-9.10925293-2.97583008l1.95471191-4.12670898c2.18945313 1.70629883 5.00427246 2.65844726 7.31091309 2.65844726 1.5246582 0 2.65844726-.51586914 2.65844726-1.6665039 0-3.41235352-10.90759277-1.5871582-10.90759277-9.08666992 0-4.40454102 3.71411133-6.66625977 8.288208-6.66625977 2.89306641 0 5.8643799.87304687 8.21008302 2.38085937l-2.07202149 4.16625977c-2.30664062-1.30932617-4.65246582-2.06323242-6.41174316-2.06323242-1.40734863 0-2.42382813.47607422-2.42382813 1.5871582 0 1.26904297 1.73083496 1.78344727 3.82336426 2.40527344 3.20739746.953125 7.26428223 2.1586914 7.24060059 6.7211914zM192.0522461 20.28125v10.12792969h-6.0111084V9.37109375h6.0111084v3.7932129C193.49645995 10.58325194 195.8774414 9.1755371 199 9.1364746v5.67016601c-4.2935791-.39111328-6.9477539 1.91601563-6.9477539 5.47460938zM97.68493651 31V9.72729492h-5.89038086V31h5.89038086zm24.10656739-3.68115234C119.6796875 29.64379883 116.59033203 31 112.79699707 31c-6.72619629 0-10.98876953-4.26220703-10.98876953-10.578125 0-6.43237305 4.41894531-10.69458008 10.83239746-10.69458008 7.39099121 0 10.83239746 4.84350586 10.3239746 12.43823242h-15.0949707c.7039795 2.63476563 2.73742676 4.18481446 5.43579102 4.18481446 1.99438477 0 3.87145996-.77514649 5.31848145-2.20874024l3.16760254 3.1772461zm58.90405273 0C178.58374024 29.64379883 175.49438477 31 171.7010498 31c-6.72619628 0-10.98876953-4.26220703-10.98876953-10.578125 0-6.43237305 4.41894532-10.69458008 10.83239746-10.69458008 7.39099122 0 10.83239747 4.84350586 10.32397461 12.43823242h-15.0949707c.7039795 2.63476563 2.73742676 4.18481446 5.43579102 4.18481446 1.99438476 0 3.87145996-.77514649 5.31848144-2.20874024l3.16760254 3.1772461zm-63.57226562-8.72802735h-9.42468262c.46166992-2.86865234 2.23120117-4.72729492 4.84692383-4.72729492 2.73132324 0 4.50085449 1.85864258 4.57775879 4.72729492zm59.49316406 0h-9.42468262c.46166992-2.86865234 2.23120117-4.72729492 4.84692383-4.72729492 2.73132324 0 4.5008545 1.85864258 4.57775879 4.72729492z"/>
      <path fill="rgb(0,177,166)" fill-rule="evenodd" d="M95 6c1.77108434 0 3-1.25581395 3-3s-1.22891566-3-3-3-3 1.25581395-3 3 1.22891566 3 3 3z"/>
      <path fill="rgb(1,178,166)" fill-rule="evenodd" d="M124.97497559 39.60766602c.45385742 0 .80029296-.33520508.80029296-.7980957 0-.4741211-.34643554-.80957032-.80029296-.80957032-.45385743 0-.8001709.33544922-.8001709.80957031 0 .46289063.34631347.7980957.8001709.7980957zm10.46264648-.7980957c0 .46289062-.34643555.7980957-.80029297.7980957s-.8001709-.33520508-.8001709-.7980957c0-.4741211.34631348-.80957032.8001709-.80957032s.80029297.33544922.80029297.80957031zm-12.40942383 7.91162109v-1.23754883h-3.61889648v-6.85913086H118v8.09667969h5.02819824zM147.70361328 49C149.69812012 49 151 47.88964844 151 46.11987305v-5.55200196h-1.36157227V41.5625c-.44189453-.67089844-1.17041015-1.05249023-2.14978027-1.04101563-1.68408203.01147461-2.81872559 1.19140625-2.81872559 2.92651368 0 1.76953125 1.14660645 2.97265625 2.86645508 2.97265625.95544434 0 1.67211914-.37036133 2.10205078-1.04101563v.77490235c0 1.06420898-.788208 1.74658203-1.99450683 1.74658203-.77636719 0-1.39746094-.24291993-1.9946289-.67089844l-.58520509.95996094C145.84033203 48.69921875 146.71228027 49 147.70361328 49zm-8.98156738-5.55200195v3.27319336h-1.37353516v-6.15332032h1.37353516v1.1796875c.45385742-.85595703 1.2659912-1.22607421 2.34094238-1.22607421 1.48095703 0 2.3647461.9020996 2.3647461 2.37109375v3.82861328h-1.3734131v-3.4584961c0-.92529297-.57336425-1.49194336-1.52880858-1.49194336-1.0510254.01147461-1.70788575.71704102-1.8034668 1.6772461zm-13.06628418-2.88012696v6.15356446h-1.36157227v-6.15356446h1.36157227zm4.90881348 6.15356446l2.43652343-6.15356446h-1.37353515l-1.74365235 4.84643555-1.7677002-4.84643555h-1.43322753l2.46032715 6.15356446h1.42126465zm4.75354003 0v-6.15356446h-1.36157226v6.15356446h1.36157226zm10.64172364-3.23876953c.01196289 1.11035156.7524414 1.89672851 1.85119629 1.89672851 1.07495117 0 1.82739257-.78637695 1.82739257-1.89672851 0-1.1105957-.7524414-1.88549805-1.82739257-1.88549805-1.086792 0-1.8392334.7866211-1.8511963 1.88549805z"/>
    </g>
    <path fill="rgb(6,31,53)" fill-rule="evenodd" d="M307 3c0 1.74414063-1.22888184 3-3 3s-3-1.25585938-3-3c0-1.74414063 1.22888184-3 3-3s3 1.25585938 3 3zm-9 17.09082031C298 26.62841797 294.05371094 31 288.03466797 31c-2.98962402 0-5.34143067-1.203125-6.8959961-3.36889648v3.12817382H275V1h6.13867188v11.3503418c1.51464843-2.16577149 3.86657714-3.36914063 6.77636718-3.36914063C293.93408203 8.98120117 298 13.43310547 298 20.09082031zM319 1v29h-6V1h6zM214.94921875 20.24267578V31H209V9.24267578h5.94921875v3.76098633C216.41723633 10.33447266 218.85095215 9.04052734 221.98010254 9c3.51550293 0 6.02648926 1.86035156 7.03088379 5.01464844C230.36315918 10.65820312 232.9901123 9.04052734 236.50549316 9 241.10266113 9 244 12.23535156 244 17.33081055V31h-5.91064453V19.15063477c0-2.7902832-1.54516602-4.44848633-4.01757813-4.44848633-2.85876464.04052734-4.59716797 2.38598633-4.59716797 5.54052734V31h-5.91064453V19.15063477c0-2.7902832-1.54516601-4.44848633-3.9790039-4.44848633-2.89733887.04052734-4.63574219 2.38598633-4.63574219 5.54052734zM270 19.97998047C270 26.55200195 265.37609863 31 258.51989746 31 251.62390136 31 247 26.55200195 247 19.97998047 247 13.36791992 251.62390137 9 258.51989746 9 265.37609863 9 270 13.36791992 270 19.97998047zM307 31V9h-6v22h6zm27.4005127 0c3.9354248 0 7.140625-1.4025879 9.3314209-3.80688477l-3.28625489-3.2861328c-1.50109863 1.48291015-3.4486084 2.28417968-5.5177002 2.28417968-2.79943847 0-4.90917968-1.6027832-5.6394043-4.32788086h15.66052247C345.4765625 14.0090332 341.90625 9 334.23828125 9 327.58459473 9 323 13.40795898 323 20.0600586 323 26.59204101 327.42224121 31 334.4005127 31zM258 26c-2.98510742 0-5-2.22973633-5-5.5s2.01489258-5.5 5-5.5c2.9477539 0 5 2.22973633 5 5.5s-2.0522461 5.5-5 5.5zm27.01867676 0C282.05993652 26 280 23.77783203 280 20.48144531 280 17.25927734 282.05993652 15 285.01867676 15 287.97753906 15 290 17.29638672 290 20.48144531 290 23.74072266 287.97753906 26 285.01867676 26zM330 19h9c-.07348633-2.4272461-1.76330566-4-4.37145996-4-2.4979248 0-4.18774414 1.5727539-4.62854004 4z"/>
  </g>
</svg>
