<svg xmlns="http://www.w3.org/2000/svg" width="292" height="72" viewBox="0 0 292 72">
  <g>
    <path fill="rgb(255,255,255)" fill-rule="evenodd" d="M75 38c-5.07040937 17.58148748-19.94516792 26-37.4976634 26C19.94049472 64 5.07040936 55.58148748 0 38h9.54265063C14.0522774 50.75418693 24.87070846 55.4269764 37.5023366 55.4269764c12.62695495 0 23.44071282-4.67278947 27.95501278-17.4269764H75z"/>
    <path fill="rgb(6,31,53)" fill-rule="evenodd" d="M75 27H0V9h9.70621223l-.00038091 11.00845327h55.582945l.00033827-5.63094105H75V27z"/>
    <path fill="rgb(255,255,255)" fill-rule="evenodd" d="M225.44903564 45c2.80929566 0 5.61859131-.79541016 7.86602784-2.1015625l-1.79794312-6.41845703c-1.57321167.73828125-2.92166138 1.13574219-4.04537964 1.13574219-1.85412597.0571289-2.92166137-.96533204-2.92166137-3.52148438V21.484375h8.203125v-6.07763672h-8.203125V7h-8.59643555v8.40673828h-4.21392822v6.0209961h4.21392822v14.1430664C215.9536438 41.87597656 220.0552063 45 225.44903564 45zm-109.10293579 0c6.98806763 0 12.54415894-3.36376953 12.54415894-9.74316406.03466797-6.66796875-5.90933228-8.43017578-10.60839844-9.82324219-3.06576538-.9086914-5.60165405-1.66064453-5.60165405-3.51513672 0-1.62402344 1.48925781-2.31982422 3.55133057-2.31982422 2.57754516 0 6.01431274 1.10205078 9.39379882 3.015625l3.03579712-6.08935547c-3.43673706-2.20361328-7.78997802-3.47949218-12.028656-3.47949218-6.70169068 0-12.143219 3.30566406-12.143219 9.74316406 0 10.96044922 15.98092652 8.29296875 15.98092652 13.28027344 0 1.6821289-1.6611023 2.43603515-3.89498902 2.43603515-3.37948608 0-7.50360107-1.39208984-10.71124267-3.88574218L103 40.65039063C106.49404907 43.4921875 111.36279297 45 116.34609985 45zm92.80444336-9.74316406c0 6.37939453-5.5560913 9.74316406-12.54415893 9.74316406-4.98330689 0-9.85205078-1.5078125-13.34609986-4.34960938l2.86395264-6.03125c3.20767212 2.49365235 7.3317566 3.8857422 10.71124268 3.8857422 2.23391723 0 3.89498901-.75390626 3.89498901-2.43603516 0-4.9873047-15.98092651-2.31982422-15.98092651-13.28027344 0-6.4375 5.44152832-9.74316406 12.14321899-9.74316406 4.23867798 0 8.59191895 1.2758789 12.028656 3.47949218l-3.03579711 6.08935547c-3.37948609-1.91357422-6.81622315-3.015625-9.39379883-3.015625-2.06207275 0-3.55133057.69580078-3.55133057 2.31982422 0 1.85449219 2.53588867 2.60644531 5.60165406 3.51513672 4.69906616 1.3930664 10.6430664 3.15527344 10.60839843 9.82324219zm72.67004395-5.92285157v14.8022461h-8.80688477V13.38818359h8.80688477v5.54394532c2.1159668-3.77197266 5.60440063-5.82958985 10.17941284-5.88671875v8.28710937c-6.29064941-.57177734-10.17941284 2.80029297-10.17941284 8.00146485zM143.5616455 45V13.90917969h-8.63012696V45h8.63012696zm35.31884765-5.37988281C175.78656006 43.0180664 171.26025391 45 165.70263672 45c-9.85473633 0-16.09988403-6.22949219-16.09988403-15.46044922 0-9.4008789 6.47433471-15.6303711 15.87072753-15.6303711 10.82873536 0 15.87069703 7.07910157 15.1258545 18.17871094h-22.11584473c1.03131104 3.85107422 4.01065063 6.11621094 7.96398926 6.11621094 2.9220581 0 5.6722107-1.13232422 7.79211426-3.22802734l4.64089965 4.64404297zm86.30136109 0C262.08792115 43.0180664 257.56161499 45 252.0039978 45c-9.85473633 0-16.09988403-6.22949219-16.09988403-15.46044922 0-9.4008789 6.47433472-15.6303711 15.87072754-15.6303711 10.82873535 0 15.87069702 7.07910157 15.1258545 18.17871094h-22.11584474c1.03131104 3.85107422 4.01065064 6.11621094 7.96398926 6.11621094 2.9220581 0 5.6722107-1.13232422 7.79211426-3.22802734l4.64089966 4.64404297zm-93.14074707-12.75634766h-13.80822754c.67633057-4.1928711 3.26889038-6.90917969 7.1013794-6.90917969 4.00155639 0 6.5941162 2.7163086 6.70684814 6.9091797zm87.16436767 0h-13.80822754c.67633057-4.1928711 3.26889039-6.90917969 7.1013794-6.90917969 4.0015564 0 6.59411621 2.7163086 6.70684814 6.9091797z"/>
    <path fill="rgb(6,31,53)" fill-rule="evenodd" d="M139.5 9c2.6566265 0 4.5-1.88372093 4.5-4.5S142.1566265 0 139.5 0 135 1.88372093 135 4.5s1.8433735 4.5 4.5 4.5z"/>
    <path fill="rgb(6,31,53)" fill-rule="evenodd" d="M183.1454773 58.3383789c.66015624 0 1.16397094-.48779296 1.16397094-1.16064453 0-.6899414-.5038147-1.17773437-1.16397095-1.17773437-.66012573 0-1.16394042.48779297-1.16394042 1.17773438 0 .67285156.5038147 1.16064453 1.16394042 1.16064453zm15.21826171-1.16064453c0 .67285157-.5038147 1.16064454-1.16397094 1.16064454-.66012574 0-1.16394043-.48779297-1.16394043-1.16064454 0-.6899414.5038147-1.17773437 1.16394043-1.17773437.66015625 0 1.16397094.48779297 1.16397094 1.17773438zm-18.04995727 11.5078125V66.8857422h-5.26382446V56.9086914H173v11.77685546h7.31378174zm22.82736206-4.76171874v4.76171875h-1.99783325v-8.9506836h1.99783325v1.71582031c.66015625-1.2446289 1.84146118-1.78320312 3.40499878-1.78320312 2.1541748 0 3.43972778 1.3125 3.43972778 3.44921875v5.56884765h-1.99783325v-5.03076171c0-1.34570313-.8338623-2.17041016-2.22366333-2.17041016-1.52877808.01708984-2.48425293 1.04345703-2.62322998 2.43945313zM216.2052002 72C219.10638428 72 221 70.38476562 221 67.81103516v-8.0756836h-1.98046875v1.44677735c-.64279175-.97607422-1.70248413-1.53125-3.12704468-1.51416016-2.4494934.01660156-4.09988403 1.73291016-4.09988403 4.25634766 0 2.57421875 1.66775513 4.32421875 4.16937256 4.32421875 1.38980102 0 2.43215942-.53857422 3.05755615-1.51464844v1.1274414c0 1.54785157-1.14657593 2.54052735-2.90118408 2.54052735-1.12921143 0-2.03259278-.35351563-2.9012146-.97607422l-.8512268 1.39648438C213.49508666 71.5625 214.76327514 72 216.2052002 72zm-32.06945801-12.26513672v8.9506836h-1.98046875v-8.9506836h1.98046875zm7.14004516 8.9506836l3.54397583-8.9506836h-1.99783325l-2.53634643 7.0493164-2.57113648-7.0493164h-2.08468628l3.57870484 8.9506836h2.06732177zm6.9142456 0v-8.9506836h-1.98046874v8.9506836h1.98046875zm15.4787903-4.7109375c.0173645 1.61523437 1.0944519 2.75927734 2.6927185 2.75927734 1.5635376 0 2.6579895-1.14404297 2.6579895-2.75927735 0-1.61474609-1.0944519-2.7421875-2.6579895-2.7421875-1.58087158 0-2.675354 1.14404297-2.6927185 2.7421875z"/>
  </g>
</svg>
