<svg xmlns="http://www.w3.org/2000/svg" width="199" height="49" viewBox="0 0 199 49">
  <g>
    <path fill="rgb(6,31,53)" fill-rule="evenodd" d="M51 26c-3.44787837 12.17179903-13.56271419 18-25.49841112 18C13.55953642 44 3.44787838 38.17179903 0 26h6.48900243c3.0665462 8.82982172 10.42307932 12.06482982 19.01258645 12.06482982 8.58632937 0 15.93968472-3.2350081 19.00940869-12.06482982H51z"/>
    <path fill="rgb(0,177,166)" fill-rule="evenodd" d="M51 18H0V6h6.60022431l-.00025901 7.33896885h37.7964026l.00023002-3.7539607H51V18z"/>
    <path fill="rgb(6,31,53)" fill-rule="evenodd" d="M153.57635498 31c1.91744995 0 3.8348999-.5440979 5.36883545-1.4379654l-1.22714233-4.39163207c-1.0737915.50523376-1.99417115.77728271-2.76113892.77728271-1.26553345.03886414-1.99414063-.6606903-1.99414063-2.40956878v-8.6278h5.598938V10.7518692h-5.598938V5h-5.86740112v5.7518692h-2.87619018v4.11958313h2.87619018v9.67713165c0 4.31389618 2.799469 6.45141602 6.48098755 6.45141602zm-74.46713257 0c4.76965332 0 8.56192017-2.30143738 8.56192017-6.66622925.02365112-4.56249237-4.0333252-5.7680893-7.2406311-6.7211914-2.0925293-.62182618-3.82339478-1.13617707-3.82339478-2.40518952 0-1.1110382 1.0164795-1.58719635 2.42391968-1.58719635 1.75930786 0 4.10501098.75391388 6.4116516 2.0633545L87.51474 11.5171585c-2.34570312-1.50784302-5.31695557-2.38079834-8.21002197-2.38079834-4.57415772 0-8.28823853 2.2617569-8.28823853 6.66622925 0 7.49950409 10.9076233 5.67422485 10.9076233 9.08670044 0 1.15071868-1.13375855 1.6665573-2.65847779 1.6665573-2.30664063 0-5.121521-.95231628-7.31085205-2.65855407L70 28.02400208C72.38482666 29.96832275 75.70794678 31 79.10922241 31zm63.34274292-6.66622925C142.45196533 28.69856262 138.6596985 31 133.89004517 31c-3.40127564 0-6.72439576-1.03167725-9.10922242-2.97599792l1.95477295-4.12670899c2.18933106 1.7062378 5.00421143 2.65855408 7.31085205 2.65855408 1.52471924 0 2.65847779-.51583863 2.65847779-1.66655731 0-3.41247559-10.9076233-1.58719635-10.9076233-9.08670044 0-4.40447235 3.71408082-6.66622925 8.28823853-6.66622925 2.8930664 0 5.86431885.87295532 8.21002197 2.38079834l-2.072052 4.16638946c-2.30664062-1.3094406-4.65234375-2.06335449-6.4116516-2.06335449-1.4074402 0-2.42391969.47615814-2.42391969 1.58719635 0 1.26901245 1.73086548 1.78336334 3.82339478 2.40518952 3.2073059.9531021 7.26428223 2.15869903 7.2406311 6.7211914zm49.60018921-4.0526886v10.12800598h-6.01104736V9.37098693h6.01104736v3.79311372C193.49636841 10.58322144 195.87738037 9.17546082 199 9.13636017v5.67012024c-4.29360962-.39104462-6.94784546 1.91610718-6.94784546 5.47460174zM97.68493652 31V9.72727203h-5.89041137V31h5.89041137zm24.10650635-3.68107605C119.67971802 29.64381409 116.59033203 31 112.79705811 31c-6.72625733 0-10.98883057-4.26229858-10.98883057-10.57823944 0-6.43218994 4.41897583-10.69448853 10.83239746-10.69448853 7.39105225 0 10.83239746 4.8435135 10.32400513 12.4381485h-15.0949707c.70391845 2.63488007 2.73745727 4.1847992 5.4357605 4.1847992 1.99441528 0 3.87152099-.77496338 5.3184204-2.20864106l3.16760254 3.17734528zm58.90411377 0C178.5838318 29.64381409 175.4944458 31 171.70117187 31c-6.72625732 0-10.98883056-4.26229858-10.98883056-10.57823944 0-6.43218994 4.41897583-10.69448853 10.83239746-10.69448853 7.39105225 0 10.83239746 4.8435135 10.32400513 12.4381485h-15.0949707c.70391845 2.63488007 2.73745727 4.1847992 5.4357605 4.1847992 1.99441527 0 3.87152099-.77496338 5.3184204-2.20864106l3.16760254 3.17734528zm-63.57226562-8.72801208h-9.4246521c.46160888-2.86868287 2.23114013-4.72727204 4.84695434-4.72727204 2.7312317 0 4.50076294 1.85858917 4.57769776 4.72727204zm59.49313354 0h-9.4246521c.46160889-2.86868287 2.23114014-4.72727204 4.84695435-4.72727204 2.73123169 0 4.50076294 1.85858917 4.57769775 4.72727204z"/>
    <path fill="rgb(0,177,166)" fill-rule="evenodd" d="M95 6c1.77108434 0 3-1.25581395 3-3s-1.22891566-3-3-3-3 1.25581395-3 3 1.22891566 3 3 3z"/>
    <path fill="rgb(1,178,166)" fill-rule="evenodd" d="M124.97503662 39.60778046c.4538269 0 .80020142-.33543396.80020142-.79810334 0-.47424316-.34637451-.80967712-.80020142-.80967712-.45385742 0-.80023193.33543396-.80023193.80967712 0 .46266938.3463745.79810334.80023193.79810334zm10.46252442-.79810334c0 .46266938-.34637452.79810334-.80020142.79810334-.45385742 0-.80023193-.33543396-.80023193-.79810334 0-.47424316.3463745-.80967712.80023193-.80967712.4538269 0 .80020142.33543396.80020142.80967712zM123.02822876 46.721344v-1.237648h-3.61889648v-6.85909272H118V46.721344h5.02822876zM147.70358276 49C149.69815063 49 151 47.8895874 151 46.11987305v-5.55204773h-1.36157227v.99474334c-.44189453-.67087554-1.17047119-1.05258178-2.1498413-1.04101562-1.684021.0115738-2.81866455 1.19138336-2.81866455 2.92639923 0 1.76971436 1.14657592 2.97265625 2.86645507 2.97265625.95547486 0 1.67208863-.37013245 2.10205078-1.041008v.77497101c0 1.06414795-.78826904 1.74658203-1.99456787 1.74658203-.77633667 0-1.3973999-.24289703-1.99456787-.67086792l-.5852356.96003724C145.84039308 48.69926453 146.71228028 49 147.70358277 49zm-8.98153686-5.55205536V46.721344h-1.37350464v-6.1535263h1.37350464v1.17980957c.45385742-.85593414 1.26602173-1.22607422 2.34094238-1.22607422 1.48098755 0 2.36480713.90220642 2.36480713 2.3711853V46.721344h-1.37350464v-3.45846557c0-.92533875-.5732727-1.4921112-1.52877807-1.4921112-1.0510254.01156615-1.70791626.71714019-1.8034668 1.67717742zm-13.06622315-2.88011932v6.15351867h-1.36157226v-6.15351867h1.36157226zm4.90878296 6.15351867l2.43649292-6.15351867h-1.37353515l-1.7437439 4.84648132-1.76763916-4.84648132h-1.43322754l2.46035767 6.15351867h1.42129516zm4.75354004 0v-6.15351867h-1.36157226v6.15351867h1.36157226zm10.64169312-3.23869323c.01193237 1.1104126.7524414 1.89694976 1.85125732 1.89694976 1.07492066 0 1.82736206-.78653717 1.82736206-1.89694976 0-1.1104126-.7524414-1.8853836-1.82736206-1.8853836-1.08688354 0-1.83932495.78653716-1.85125732 1.8853836z"/>
  </g>
</svg>
